<?xml version="1.0" encoding="utf-16"?>
<svg xmlns="http://www.w3.org/2000/svg" baseProfile="tiny" version="1.2" viewBox="0 0 269.69 347.47">
  <path fill="#d4d5d6" d="M238.49 4.62c-24.63-10.97-53.01-1.73-65.8 20.57-1.32 2.31-2.38 4.76-3.26 7.27l-1.34 3.8a56 56 0 0 1-9.91 17.35L43.39 190.41a56.1 56.1 0 0 1-15.37 12.77l-3.51 1.98c-2.32 1.31-4.54 2.77-6.59 4.48-19.75 16.47-23.91 46.02-8.83 68.37 16.06 23.81 47.87 30.44 71.05 14.8l2.73-1.8c9.76-6.41 18.53-14.21 26.03-23.16l136.93-163.16c7.51-8.95 13.67-18.94 18.29-29.67l1.29-3c11.37-25.54-.68-55.72-26.91-67.4Z" />
  <path fill="#db0020" d="M171.78 170.92c-8.54 10.17-17.38 7.26-41.41 6.49-9.86-.31-10.65-.97-12.7-10.65-4.94-23.53-9.34-31.73-.8-41.91 5.8-6.91 17.97-10.82 27.51-2.81 6.35 5.33 7.11 11.53 7.18 14.23.05 1.68 1.29 2.72 2.95 2.48 2.67-.4 8.91-.72 15.29 4.63 9.54 8.01 7.77 20.64 1.97 27.55Z" />
  <g fill="#e8e9e9">
    <ellipse cx="128.43" cy="331.47" rx="112" ry="16" />
    <ellipse cx="104.04" cy="244.02" rx="19" ry="6" transform="rotate(-52 104.041 244.016)" />
    <ellipse cx="42.66" cy="196.06" rx="19" ry="6" transform="rotate(-52 42.66 196.058)" />
    <ellipse cx="161.46" cy="54.47" rx="19" ry="6" transform="rotate(-52 161.462 54.474)" />
    <path d="M227.57 106.12c6.46-8.27 9.58-16.63 6.97-18.67s-9.97 3.01-16.43 11.28-9.58 16.63-6.97 18.67 9.97-3.01 16.43-11.28" />
  </g>
  <g fill="#191919">
    <path d="M159.69 53.09c-2.42 3.1-3.59 6.23-2.61 7s3.74-1.13 6.16-4.23 3.59-6.23 2.61-7-3.74 1.13-6.16 4.23M227.23 96.81c-.61-.48-1.91.08-3.39 1.32l-14.17-11.07 3.66-4.36c2.13-2.54 1.79-6.32-.74-8.45l-3.07-2.57a5.995 5.995 0 0 0-8.45.74l-4.02 4.78-.03-.03-12.71-9.93c-.73 1.07-1.51 2.15-2.36 3.24-.85 1.08-1.71 2.11-2.57 3.07l12.52 9.78-3.7 4.41a5.995 5.995 0 0 0 .74 8.45l3.07 2.57a5.995 5.995 0 0 0 8.45-.74l4.06-4.83 14.39 11.24c-.84 1.74-1.07 3.13-.46 3.61.98.77 3.74-1.13 6.16-4.23s3.59-6.23 2.61-7ZM105.03 239.72l-14.2-11.03 3.69-4.4a5.995 5.995 0 0 0-.74-8.45l-3.07-2.57c-2.53-2.13-6.32-1.8-8.45.74l-4.01 4.78-.03-.03-12.71-9.93c-.73 1.07-1.51 2.15-2.36 3.24-.85 1.08-1.71 2.11-2.57 3.07l12.53 9.79-3.7 4.41a5.995 5.995 0 0 0 .74 8.45l3.06 2.57a5.995 5.995 0 0 0 8.45-.74l4.06-4.83 14.39 11.24c-.84 1.73-1.07 3.13-.46 3.61.98.77 3.74-1.13 6.16-4.23s3.59-6.23 2.61-7c-.61-.48-1.91.08-3.4 1.32ZM40.88 194.68c-2.42 3.1-3.59 6.23-2.61 7s3.74-1.13 6.16-4.23 3.59-6.23 2.61-7-3.74 1.13-6.16 4.23" />
  </g>
  <g fill="#939598">
    <path d="m250.3 99.77-15.76-12.31c2.61 2.04-.51 10.4-6.97 18.67s-13.81 13.32-16.43 11.28l15.76 12.31c2.61 2.04 9.97-3.01 16.43-11.28s9.58-16.63 6.97-18.67M188.92 51.81 173.16 39.5c2.61 2.04-.51 10.4-6.97 18.67s-13.81 13.32-16.43 11.28l15.76 12.31c2.61 2.04 9.97-3.01 16.43-11.28s9.58-16.63 6.97-18.67M115.74 229.05c2.61 2.04-.51 10.4-6.97 18.67S94.96 261.04 92.34 259l15.76 12.31c2.61 2.04 9.97-3.01 16.43-11.28s9.58-16.63 6.97-18.67zM70.12 193.4l-15.76-12.31c2.61 2.04-.51 10.4-6.97 18.67s-13.81 13.32-16.43 11.28l15.76 12.31c2.61 2.04 9.97-3.01 16.43-11.28s9.58-16.63 6.97-18.67M81.49 214.92l-3.25 3.87a3.987 3.987 0 0 1 .66 5.59 3.995 3.995 0 0 1-5.61.69l-.19-.15-2.35 2.81c-1.11 1.33.51 3.41 2.16 2.77l7.98-3.07a3.31 3.31 0 0 0 2.08-2.48l1.63-8.39c.34-1.74-1.99-2.97-3.11-1.65ZM200.29 73.33l-3.25 3.87a3.987 3.987 0 0 1 .66 5.59 3.995 3.995 0 0 1-5.61.69l-.19-.15-2.35 2.81c-1.11 1.33.51 3.41 2.16 2.77l7.98-3.07a3.31 3.31 0 0 0 2.08-2.48l1.63-8.39c.34-1.74-1.99-2.97-3.11-1.65Z" />
  </g>
</svg>